# 3ds Max Wavefront OBJ Exporter v0.97b - (c)2007 guruware
# File Created: 27.10.2018 14:33:11

mtllib weapon_SteelPipe.mtl

#
# object weapon_SteelPipe
#

v  -0.000000 -37.500000 -1.900000
v  -0.000000 37.500000 -1.900000
v  0.649838 37.500000 -1.785416
v  0.649838 -37.500000 -1.785416
v  -0.000000 37.500000 -1.500000
v  0.513030 37.500000 -1.409539
v  -0.000000 -37.500000 -1.500000
v  0.513030 -37.500000 -1.409539
v  1.221297 37.500000 -1.455484
v  1.221297 -37.500000 -1.455484
v  0.964181 37.500000 -1.149067
v  0.964181 -37.500000 -1.149067
v  1.645448 37.500000 -0.950000
v  1.645448 -37.500000 -0.950000
v  1.299038 37.500000 -0.750000
v  1.299038 -37.500000 -0.750000
v  1.871135 37.500000 -0.329931
v  1.871135 -37.500000 -0.329931
v  1.477212 37.500000 -0.260472
v  1.477212 -37.500000 -0.260472
v  1.871135 37.500000 0.329932
v  1.871135 -37.500000 0.329932
v  1.477212 37.500000 0.260472
v  1.477212 -37.500000 0.260472
v  1.645448 37.500000 0.950000
v  1.645448 -37.500000 0.950000
v  1.299038 37.500000 0.750000
v  1.299038 -37.500000 0.750000
v  1.221296 37.500000 1.455485
v  1.221296 -37.500000 1.455485
v  0.964181 37.500000 1.149067
v  0.964181 -37.500000 1.149067
v  0.649838 37.500000 1.785416
v  0.649838 -37.500000 1.785416
v  0.513030 37.500000 1.409539
v  0.513030 -37.500000 1.409539
v  -0.000001 37.500000 1.900000
v  -0.000001 -37.500000 1.900000
v  -0.000000 37.500000 1.500000
v  -0.000000 -37.500000 1.500000
v  -0.649839 37.500000 1.785416
v  -0.649839 -37.500000 1.785416
v  -0.513031 37.500000 1.409539
v  -0.513031 -37.500000 1.409539
v  -1.221297 37.500000 1.455484
v  -1.221297 -37.500000 1.455484
v  -0.964182 37.500000 1.149066
v  -0.964182 -37.500000 1.149066
v  -1.645448 37.500000 0.950000
v  -1.645448 -37.500000 0.950000
v  -1.299038 37.500000 0.750000
v  -1.299038 -37.500000 0.750000
v  -1.871135 37.500000 0.329931
v  -1.871135 -37.500000 0.329931
v  -1.477212 37.500000 0.260472
v  -1.477212 -37.500000 0.260472
v  -1.871135 37.500000 -0.329932
v  -1.871135 -37.500000 -0.329932
v  -1.477212 37.500000 -0.260472
v  -1.477212 -37.500000 -0.260472
v  -1.645448 37.500000 -0.950000
v  -1.645448 -37.500000 -0.950000
v  -1.299038 37.500000 -0.750000
v  -1.299038 -37.500000 -0.750000
v  -1.221296 37.500000 -1.455485
v  -1.221296 -37.500000 -1.455485
v  -0.964181 37.500000 -1.149067
v  -0.964181 -37.500000 -1.149067
v  -0.649838 37.500000 -1.785416
v  -0.649838 -37.500000 -1.785416
v  -0.513030 37.500000 -1.409539
v  -0.513030 -37.500000 -1.409539
# 72 vertices

vn 0.000014 -0.670072 -0.742297
vn 0.000014 0.670072 -0.742297
vn 0.253893 0.670031 -0.697565
vn 0.253893 -0.670031 -0.697565
vn 0.000000 0.748361 0.663292
vn -0.226859 0.748361 0.623291
vn 0.000000 -0.748361 0.663292
vn -0.226859 -0.748361 0.623291
vn 0.477163 0.670031 -0.568660
vn 0.477163 -0.670031 -0.568660
vn -0.426320 0.748397 0.508088
vn -0.426320 -0.748397 0.508088
vn 0.642841 0.670071 -0.371161
vn 0.642841 -0.670071 -0.371161
vn -0.574357 0.748433 0.331605
vn -0.574357 -0.748433 0.331605
vn 0.731022 0.670071 -0.128884
vn 0.731022 -0.670071 -0.128884
vn -0.653177 0.748397 0.115160
vn -0.653177 -0.748397 0.115160
vn 0.731055 0.670031 0.128905
vn 0.731055 -0.670031 0.128905
vn -0.653215 0.748361 -0.115180
vn -0.653215 -0.748361 -0.115180
vn 0.642879 0.670031 0.371167
vn 0.642879 -0.670031 0.371167
vn -0.574428 0.748361 -0.331646
vn -0.574428 -0.748361 -0.331646
vn 0.477162 0.670031 0.568660
vn 0.477162 -0.670031 0.568660
vn -0.426356 0.748361 -0.508111
vn -0.426356 -0.748361 -0.508111
vn 0.253893 0.670031 0.697565
vn 0.253893 -0.670031 0.697565
vn -0.226859 0.748361 -0.623291
vn -0.226859 -0.748361 -0.623291
vn -0.000000 0.670031 0.742333
vn -0.000000 -0.670031 0.742333
vn -0.000013 0.748397 -0.663251
vn -0.000013 -0.748397 -0.663251
vn -0.253893 0.670031 0.697565
vn -0.253893 -0.670031 0.697565
vn 0.226858 0.748397 -0.623248
vn 0.226858 -0.748397 -0.623248
vn -0.477163 0.670031 0.568660
vn -0.477163 -0.670031 0.568660
vn 0.426320 0.748397 -0.508088
vn 0.426320 -0.748397 -0.508088
vn -0.642879 0.670031 0.371166
vn -0.642879 -0.670031 0.371166
vn 0.574399 0.748397 -0.331614
vn 0.574399 -0.748397 -0.331614
vn -0.731055 0.670031 0.128905
vn -0.731055 -0.670031 0.128905
vn 0.653215 0.748361 -0.115179
vn 0.653215 -0.748361 -0.115179
vn -0.731055 0.670031 -0.128905
vn -0.731055 -0.670031 -0.128905
vn 0.653215 0.748361 0.115180
vn 0.653215 -0.748361 0.115180
vn -0.642879 0.670031 -0.371167
vn -0.642879 -0.670031 -0.371167
vn 0.574428 0.748361 0.331646
vn 0.574428 -0.748361 0.331646
vn -0.477163 0.670031 -0.568660
vn -0.477163 -0.670031 -0.568660
vn 0.426340 0.748397 0.508072
vn 0.426340 -0.748397 0.508072
vn -0.253894 0.670071 -0.697526
vn -0.253894 -0.670071 -0.697526
vn 0.226833 0.748397 0.623257
vn 0.226833 -0.748397 0.623257
# 72 vertex normals

vt 0.234408 0.025695 0.000000
vt 0.946202 0.763385 0.000000
vt 0.939766 0.769149 0.000000
vt 0.228381 0.032076 0.000000
vt 0.948515 0.768472 0.000000
vt 0.943069 0.773428 0.000000
vt 0.757310 0.975263 0.000000
vt 0.020064 0.236073 0.000000
vt 0.025198 0.230952 0.000000
vt 0.762444 0.970143 0.000000
vt 0.229395 0.022821 0.000000
vt 0.224423 0.028509 0.000000
vt 0.933963 0.774868 0.000000
vt 0.222269 0.037962 0.000000
vt 0.937579 0.778824 0.000000
vt 0.030333 0.225831 0.000000
vt 0.767579 0.965022 0.000000
vt 0.218517 0.034161 0.000000
vt 0.928297 0.780458 0.000000
vt 0.216249 0.043809 0.000000
vt 0.932029 0.784313 0.000000
vt 0.035467 0.220710 0.000000
vt 0.772713 0.959900 0.000000
vt 0.212499 0.039969 0.000000
vt 0.922670 0.786007 0.000000
vt 0.210265 0.049682 0.000000
vt 0.926437 0.789842 0.000000
vt 0.040602 0.215589 0.000000
vt 0.777848 0.954779 0.000000
vt 0.206514 0.045836 0.000000
vt 0.917053 0.791548 0.000000
vt 0.204279 0.055544 0.000000
vt 0.920834 0.795379 0.000000
vt 0.045737 0.210467 0.000000
vt 0.782982 0.949658 0.000000
vt 0.200510 0.051695 0.000000
vt 0.911443 0.797092 0.000000
vt 0.198322 0.061431 0.000000
vt 0.915229 0.800922 0.000000
vt 0.050871 0.205346 0.000000
vt 0.788117 0.944537 0.000000
vt 0.194540 0.057601 0.000000
vt 0.905840 0.802640 0.000000
vt 0.192365 0.067325 0.000000
vt 0.909625 0.806469 0.000000
vt 0.056006 0.200224 0.000000
vt 0.793252 0.939415 0.000000
vt 0.188580 0.063499 0.000000
vt 0.900240 0.808187 0.000000
vt 0.186408 0.073221 0.000000
vt 0.904027 0.812014 0.000000
vt 0.061140 0.195103 0.000000
vt 0.798386 0.934293 0.000000
vt 0.182622 0.069397 0.000000
vt 0.894644 0.813734 0.000000
vt 0.180452 0.079119 0.000000
vt 0.898436 0.817557 0.000000
vt 0.066275 0.189981 0.000000
vt 0.803521 0.929171 0.000000
vt 0.176665 0.075296 0.000000
vt 0.889052 0.819283 0.000000
vt 0.174498 0.085019 0.000000
vt 0.892848 0.823102 0.000000
vt 0.071409 0.184859 0.000000
vt 0.808655 0.924050 0.000000
vt 0.170709 0.081198 0.000000
vt 0.883459 0.824837 0.000000
vt 0.168545 0.090921 0.000000
vt 0.887259 0.828653 0.000000
vt 0.076544 0.179737 0.000000
vt 0.813790 0.918928 0.000000
vt 0.164755 0.087101 0.000000
vt 0.877866 0.830395 0.000000
vt 0.162596 0.096825 0.000000
vt 0.881670 0.834208 0.000000
vt 0.081678 0.174616 0.000000
vt 0.818924 0.913806 0.000000
vt 0.158799 0.093008 0.000000
vt 0.872271 0.835964 0.000000
vt 0.156659 0.102730 0.000000
vt 0.876091 0.839761 0.000000
vt 0.086813 0.169494 0.000000
vt 0.824058 0.908685 0.000000
vt 0.152838 0.098931 0.000000
vt 0.866710 0.841560 0.000000
vt 0.150754 0.108676 0.000000
vt 0.870530 0.845341 0.000000
vt 0.091947 0.164373 0.000000
vt 0.829193 0.903564 0.000000
vt 0.146938 0.104894 0.000000
vt 0.861118 0.847135 0.000000
vt 0.144825 0.114609 0.000000
vt 0.864952 0.850897 0.000000
vt 0.097082 0.159251 0.000000
vt 0.834328 0.898442 0.000000
vt 0.141023 0.110820 0.000000
vt 0.855478 0.852751 0.000000
vt 0.138911 0.120569 0.000000
vt 0.859420 0.856411 0.000000
vt 0.102216 0.154130 0.000000
vt 0.839462 0.893321 0.000000
vt 0.135156 0.116768 0.000000
vt 0.849698 0.858494 0.000000
vt 0.132935 0.126605 0.000000
vt 0.853992 0.861872 0.000000
vt 0.107350 0.149009 0.000000
vt 0.844596 0.888200 0.000000
vt 0.129430 0.122584 0.000000
vt 0.843843 0.864841 0.000000
vt 0.126428 0.132502 0.000000
vt 0.849036 0.867320 0.000000
vt 0.112485 0.143888 0.000000
vt 0.849731 0.883079 0.000000
vt 0.123653 0.127440 0.000000
# 114 texture coords

o weapon_SteelPipe
g weapon_SteelPipe
usemtl wire_228153184
s 2
f 1/1/1 2/2/2 3/3/3 4/4/4 
s 4
f 2/2/2 5/5/5 6/6/6 3/3/3 
s 2
f 5/7/5 7/8/7 8/9/8 6/10/6 
s 4
f 7/11/7 1/1/1 4/4/4 8/12/8 
s 2
f 4/4/4 3/3/3 9/13/9 10/14/10 
s 4
f 3/3/3 6/6/6 11/15/11 9/13/9 
s 2
f 6/10/6 8/9/8 12/16/12 11/17/11 
s 4
f 8/12/8 4/4/4 10/14/10 12/18/12 
s 2
f 10/14/10 9/13/9 13/19/13 14/20/14 
s 4
f 9/13/9 11/15/11 15/21/15 13/19/13 
s 2
f 11/17/11 12/16/12 16/22/16 15/23/15 
s 4
f 12/18/12 10/14/10 14/20/14 16/24/16 
s 2
f 14/20/14 13/19/13 17/25/17 18/26/18 
s 4
f 13/19/13 15/21/15 19/27/19 17/25/17 
s 2
f 15/23/15 16/22/16 20/28/20 19/29/19 
s 4
f 16/24/16 14/20/14 18/26/18 20/30/20 
s 2
f 18/26/18 17/25/17 21/31/21 22/32/22 
s 4
f 17/25/17 19/27/19 23/33/23 21/31/21 
s 2
f 19/29/19 20/28/20 24/34/24 23/35/23 
s 4
f 20/30/20 18/26/18 22/32/22 24/36/24 
s 2
f 22/32/22 21/31/21 25/37/25 26/38/26 
s 4
f 21/31/21 23/33/23 27/39/27 25/37/25 
s 2
f 23/35/23 24/34/24 28/40/28 27/41/27 
s 4
f 24/36/24 22/32/22 26/38/26 28/42/28 
s 2
f 26/38/26 25/37/25 29/43/29 30/44/30 
s 4
f 25/37/25 27/39/27 31/45/31 29/43/29 
s 2
f 27/41/27 28/40/28 32/46/32 31/47/31 
s 4
f 28/42/28 26/38/26 30/44/30 32/48/32 
s 2
f 30/44/30 29/43/29 33/49/33 34/50/34 
s 4
f 29/43/29 31/45/31 35/51/35 33/49/33 
s 2
f 31/47/31 32/46/32 36/52/36 35/53/35 
s 4
f 32/48/32 30/44/30 34/50/34 36/54/36 
s 2
f 34/50/34 33/49/33 37/55/37 38/56/38 
s 4
f 33/49/33 35/51/35 39/57/39 37/55/37 
s 2
f 35/53/35 36/52/36 40/58/40 39/59/39 
s 4
f 36/54/36 34/50/34 38/56/38 40/60/40 
s 2
f 38/56/38 37/55/37 41/61/41 42/62/42 
s 4
f 37/55/37 39/57/39 43/63/43 41/61/41 
s 2
f 39/59/39 40/58/40 44/64/44 43/65/43 
s 4
f 40/60/40 38/56/38 42/62/42 44/66/44 
s 2
f 42/62/42 41/61/41 45/67/45 46/68/46 
s 4
f 41/61/41 43/63/43 47/69/47 45/67/45 
s 2
f 43/65/43 44/64/44 48/70/48 47/71/47 
s 4
f 44/66/44 42/62/42 46/68/46 48/72/48 
s 2
f 46/68/46 45/67/45 49/73/49 50/74/50 
s 4
f 45/67/45 47/69/47 51/75/51 49/73/49 
s 2
f 47/71/47 48/70/48 52/76/52 51/77/51 
s 4
f 48/72/48 46/68/46 50/74/50 52/78/52 
s 2
f 50/74/50 49/73/49 53/79/53 54/80/54 
s 4
f 49/73/49 51/75/51 55/81/55 53/79/53 
s 2
f 51/77/51 52/76/52 56/82/56 55/83/55 
s 4
f 52/78/52 50/74/50 54/80/54 56/84/56 
s 2
f 54/80/54 53/79/53 57/85/57 58/86/58 
s 4
f 53/79/53 55/81/55 59/87/59 57/85/57 
s 2
f 55/83/55 56/82/56 60/88/60 59/89/59 
s 4
f 56/84/56 54/80/54 58/86/58 60/90/60 
s 2
f 58/86/58 57/85/57 61/91/61 62/92/62 
s 4
f 57/85/57 59/87/59 63/93/63 61/91/61 
s 2
f 59/89/59 60/88/60 64/94/64 63/95/63 
s 4
f 60/90/60 58/86/58 62/92/62 64/96/64 
s 2
f 62/92/62 61/91/61 65/97/65 66/98/66 
s 4
f 61/91/61 63/93/63 67/99/67 65/97/65 
s 2
f 63/95/63 64/94/64 68/100/68 67/101/67 
s 4
f 64/96/64 62/92/62 66/98/66 68/102/68 
s 2
f 66/98/66 65/97/65 69/103/69 70/104/70 
s 4
f 65/97/65 67/99/67 71/105/71 69/103/69 
s 2
f 67/101/67 68/100/68 72/106/72 71/107/71 
s 4
f 68/102/68 66/98/66 70/104/70 72/108/72 
s 2
f 70/104/70 69/103/69 2/109/2 1/110/1 
s 4
f 69/103/69 71/105/71 5/111/5 2/109/2 
s 2
f 71/107/71 72/106/72 7/112/7 5/113/5 
s 4
f 72/108/72 70/104/70 1/110/1 7/114/7 
# 72 polygons

