# 3ds Max Wavefront OBJ Exporter v0.97b - (c)2007 guruware
# File Created: 27.10.2018 14:31:04

mtllib weapon_Rock.mtl

#
# object weapon_Rock
#

v  -1.926905 -5.185615 -0.679240
v  0.763670 -5.185615 -0.679240
v  0.763670 -5.185615 2.189011
v  -1.926905 -5.185615 2.189011
v  5.211169 -1.663019 -0.941968
v  4.527077 0.680437 -0.679236
v  5.377047 0.680437 2.087669
v  6.017818 -1.663019 2.452411
v  -1.926905 -1.663028 6.834849
v  0.763670 -1.663019 6.834849
v  0.763670 0.680437 6.834849
v  -1.926905 0.680446 6.834849
v  -5.949641 -1.663019 -0.679240
v  -5.949641 -1.663019 2.189011
v  -6.017828 0.680437 2.082294
v  -5.949641 0.680437 -0.679236
v  0.763670 -1.663019 -6.433023
v  -3.252433 -1.663019 -6.834854
v  -1.926905 1.655764 -6.433023
v  0.763670 1.655764 -6.433023
v  -1.926905 5.185606 2.189015
v  0.763670 4.563886 2.189015
v  0.763670 4.563886 -0.679236
v  -1.926905 5.185606 -0.679236
v  -4.617480 -4.006484 -0.679240
v  -4.617480 -4.006484 2.189011
v  4.138333 -4.006484 -0.941972
v  4.095013 -4.006484 2.553752
v  -4.735906 0.680446 5.552339
v  -4.617480 -1.663028 5.057262
v  3.454241 0.680446 5.057266
v  4.095013 -1.663028 5.422003
v  3.454241 0.680446 -3.547487
v  4.138333 -1.663019 -3.810219
v  -5.192028 0.680446 -4.209732
v  -5.943013 -1.663019 -3.949318
v  -4.617480 3.023902 -0.679236
v  -5.648977 3.023906 2.613175
v  3.656592 3.023902 0.310801
v  3.454241 3.023906 2.189015
v  -1.926905 -4.006484 5.057262
v  0.763670 -4.006484 5.057262
v  0.763670 3.023902 5.057266
v  -1.926905 3.023902 5.057266
v  0.763670 -4.006484 -3.547487
v  -3.252433 -4.006484 -3.949318
v  -1.926905 3.999229 -3.547487
v  0.763670 3.999229 -3.547487
v  -4.617480 -4.006484 5.057262
v  -5.023187 3.023902 4.673940
v  2.842160 3.023902 4.394634
v  3.058659 -4.006484 4.780068
v  4.138333 -2.630895 -3.810219
v  3.454241 3.023902 -2.037221
v  -4.617480 3.023902 -3.547487
v  -4.722618 -4.006484 -2.674043
# 56 vertices

vn -0.178278 -0.973944 -0.140179
vn 0.155702 -0.970505 -0.184059
vn 0.155460 -0.970847 0.182453
vn -0.197182 -0.962570 0.185951
vn 0.955735 -0.054685 -0.289103
vn 0.879114 0.369355 -0.301222
vn 0.891946 0.441761 0.096331
vn 0.970273 -0.174170 0.168034
vn -0.264264 -0.295177 0.918170
vn 0.184317 -0.303490 0.934838
vn 0.264264 0.295175 0.918170
vn -0.196379 0.302291 0.932768
vn -0.966797 -0.255544 -0.000980
vn -0.945377 -0.252084 0.206678
vn -0.987850 0.051052 0.146782
vn -0.961531 0.250584 -0.112544
vn 0.327936 -0.391512 -0.859754
vn -0.365220 -0.257277 -0.894664
vn -0.257081 0.497883 -0.828264
vn 0.373053 0.393235 -0.840356
vn -0.125590 0.949328 0.288103
vn 0.349024 0.909408 0.226183
vn 0.359558 0.928017 -0.097478
vn -0.210231 0.960570 -0.181958
vn -0.666387 -0.745400 0.017540
vn -0.669447 -0.742860 -0.000000
vn 0.635345 -0.752281 -0.174383
vn 0.589556 -0.794670 0.144650
vn -0.696121 0.004129 0.717913
vn -0.762271 -0.086963 0.641390
vn 0.667827 0.323180 0.670494
vn 0.656898 -0.081201 0.749594
vn 0.818880 0.303638 -0.487072
vn 0.800943 0.142859 -0.581448
vn -0.793701 0.248510 -0.555231
vn -0.919355 -0.159139 -0.359807
vn -0.748318 0.653109 -0.116058
vn -0.849774 0.526515 0.025812
vn 0.764704 0.643908 0.024700
vn 0.647284 0.751877 0.125320
vn 0.000000 -0.792471 0.609910
vn 0.037267 -0.787167 0.615613
vn 0.103967 0.746359 0.657373
vn -0.043738 0.704872 0.707985
vn 0.175651 -0.853874 -0.489945
vn -0.195326 -0.845029 -0.497770
vn -0.149626 0.853251 -0.499575
vn 0.250577 0.868883 -0.426912
vn -0.577350 -0.577350 0.577350
vn -0.548189 0.662348 0.510669
vn 0.482188 0.747278 0.457242
vn 0.339242 -0.769584 0.540976
vn 0.639842 -0.320370 -0.698545
vn 0.769096 0.576774 -0.275361
vn -0.616800 0.615457 -0.490682
vn -0.537634 -0.824806 -0.175059
# 56 vertex normals

vt 0.713281 0.237294 0.000000
vt 0.779449 0.183208 0.000000
vt 0.837990 0.252765 0.000000
vt 0.773161 0.307593 0.000000
vt 0.124305 0.778128 0.000000
vt 0.184759 0.726090 0.000000
vt 0.243002 0.796843 0.000000
vt 0.200191 0.852069 0.000000
vt 0.780405 0.570347 0.000000
vt 0.838248 0.629434 0.000000
vt 0.786741 0.679497 0.000000
vt 0.729325 0.622220 0.000000
vt 0.581211 0.360370 0.000000
vt 0.641776 0.425461 0.000000
vt 0.585505 0.474230 0.000000
vt 0.524328 0.414129 0.000000
vt 0.350660 0.144449 0.000000
vt 0.433472 0.222880 0.000000
vt 0.340464 0.272332 0.000000
vt 0.286848 0.221046 0.000000
vt 0.438234 0.609136 0.000000
vt 0.380234 0.668170 0.000000
vt 0.316051 0.599977 0.000000
vt 0.379519 0.543691 0.000000
vt 0.640774 0.295245 0.000000
vt 0.705552 0.370205 0.000000
vt 0.860180 0.101453 0.000000
vt 0.933611 0.191535 0.000000
vt 0.662846 0.558694 0.000000
vt 0.714032 0.494957 0.000000
vt 0.849804 0.758085 0.000000
vt 0.921438 0.707879 0.000000
vt 0.200666 0.133876 0.000000
vt 0.257144 0.052489 0.000000
vt 0.443446 0.338033 0.000000
vt 0.513284 0.295188 0.000000
vt 0.457339 0.469139 0.000000
vt 0.548104 0.538013 0.000000
vt 0.263566 0.694143 0.000000
vt 0.312277 0.736136 0.000000
vt 0.143202 0.923318 0.000000
vt 0.060904 0.831744 0.000000
vt 0.838074 0.499774 0.000000
vt 0.907492 0.567800 0.000000
vt 0.726090 0.749502 0.000000
vt 0.657072 0.681237 0.000000
vt 0.414379 0.049088 0.000000
vt 0.527044 0.166765 0.000000
vt 0.281238 0.369270 0.000000
vt 0.199215 0.293048 0.000000
vt 0.767786 0.441589 0.000000
vt 0.586722 0.596480 0.000000
vt 0.777483 0.803243 0.000000
vt 0.959226 0.627052 0.000000
vt 0.284752 0.030286 0.000000
vt 0.127176 0.201958 0.000000
vt 0.388765 0.398540 0.000000
vt 0.590504 0.239909 0.000000
vt 0.608149 0.179295 0.000000
vt 0.719214 0.104416 0.000000
vt 0.904127 0.326454 0.000000
vt 0.835036 0.384965 0.000000
vt 0.058743 0.706448 0.000000
vt 0.121728 0.650844 0.000000
vt 0.336100 0.860434 0.000000
vt 0.275538 0.930621 0.000000
vt 0.520006 0.685741 0.000000
vt 0.445130 0.750433 0.000000
vt 0.249704 0.532804 0.000000
vt 0.318856 0.468192 0.000000
vt 0.953582 0.269262 0.000000
vt 0.800262 0.016077 0.000000
vt 0.213520 0.635945 0.000000
vt 0.374193 0.779008 0.000000
vt 0.035654 0.728896 0.000000
vt 0.202002 0.987049 0.000000
# 76 texture coords

o weapon_Rock
g weapon_Rock
usemtl wire_228153184
s off
f 1/1/1 2/2/2 3/3/3 4/4/4 
f 5/5/5 6/6/6 7/7/7 8/8/8 
f 9/9/9 10/10/10 11/11/11 12/12/12 
f 13/13/13 14/14/14 15/15/15 16/16/16 
f 17/17/17 18/18/18 19/19/19 20/20/20 
f 21/21/21 22/22/22 23/23/23 24/24/24 
f 25/25/25 1/1/1 4/4/4 26/26/26 
f 27/27/27 28/28/28 3/3/3 2/2/2 
f 29/29/29 30/30/30 9/9/9 12/12/12 
f 31/31/31 11/11/11 10/10/10 32/32/32 
f 33/33/33 34/34/34 17/17/17 20/20/20 
f 35/35/35 19/19/19 18/18/18 36/36/36 
f 37/37/37 38/38/38 21/21/21 24/24/24 
f 39/39/39 23/23/23 22/22/22 40/40/40 
f 28/41/28 27/42/27 5/5/5 8/8/8 
f 39/39/39 40/40/40 7/7/7 6/6/6 
f 41/43/41 42/44/42 10/10/10 9/9/9 
f 43/45/43 44/46/44 12/12/12 11/11/11 
f 26/26/26 14/14/14 13/13/13 25/25/25 
f 37/37/37 16/16/16 15/15/15 38/38/38 
f 17/17/17 45/47/45 46/48/46 18/18/18 
f 47/49/47 48/50/48 20/20/20 19/19/19 
f 30/30/30 49/51/49 41/43/41 9/9/9 
f 44/46/44 50/52/50 29/29/29 12/12/12 
f 31/31/31 51/53/51 43/45/43 11/11/11 
f 10/10/10 42/44/42 52/54/52 32/32/32 
f 34/34/34 53/55/53 45/47/45 17/17/17 
f 48/50/48 54/56/54 33/33/33 20/20/20 
f 55/57/55 47/49/47 19/19/19 35/35/35 
f 46/48/46 56/58/56 36/36/36 18/18/18 
f 1/1/1 46/59/46 45/60/45 2/2/2 
f 42/61/42 41/62/41 4/4/4 3/3/3 
f 34/63/34 33/64/33 6/6/6 5/5/5 
f 7/7/7 31/65/31 32/66/32 8/8/8 
f 30/30/30 29/29/29 15/15/15 14/14/14 
f 16/16/16 35/35/35 36/36/36 13/13/13 
f 44/67/44 43/68/43 22/22/22 21/21/21 
f 23/23/23 48/69/48 47/70/47 24/24/24 
f 25/25/25 56/58/56 46/59/46 1/1/1 
f 41/62/41 49/51/49 26/26/26 4/4/4 
f 52/71/52 42/61/42 3/3/3 28/28/28 
f 45/60/45 53/72/53 27/27/27 2/2/2 
f 38/38/38 50/52/50 44/67/44 21/21/21 
f 47/70/47 55/57/55 37/37/37 24/24/24 
f 54/73/54 48/69/48 23/23/23 39/39/39 
f 22/22/22 43/68/43 51/74/51 40/40/40 
f 53/75/53 34/63/34 5/5/5 27/42/27 
f 32/66/32 52/76/52 28/41/28 8/8/8 
f 40/40/40 51/74/51 31/65/31 7/7/7 
f 6/6/6 33/64/33 54/73/54 39/39/39 
f 26/26/26 49/51/49 30/30/30 14/14/14 
f 13/13/13 36/36/36 56/58/56 25/25/25 
f 55/57/55 35/35/35 16/16/16 37/37/37 
f 15/15/15 29/29/29 50/52/50 38/38/38 
# 54 polygons

