# 3ds Max Wavefront OBJ Exporter v0.97b - (c)2007 guruware
# File Created: 27.10.2018 14:32:51

mtllib weapon_Lumber.mtl

#
# object weapon_Lumber
#

v  -2.000000 -37.500000 -2.000002
v  -2.000000 37.500000 -1.999998
v  2.000000 37.500000 -1.999998
v  2.000000 -37.500000 -2.000002
v  -2.000000 -37.500000 1.999998
v  2.000000 -37.500000 1.999998
v  2.000000 37.500000 2.000001
v  -2.000000 37.500000 2.000001
# 8 vertices

vn -0.577350 -0.577350 -0.577350
vn -0.577350 0.577350 -0.577350
vn 0.577350 0.577350 -0.577350
vn 0.577350 -0.577350 -0.577350
vn -0.577350 -0.577350 0.577350
vn 0.577350 -0.577350 0.577350
vn 0.577350 0.577350 0.577350
vn -0.577350 0.577350 0.577350
# 8 vertex normals

vt 0.180265 0.921040 0.000000
vt 0.920151 0.179780 0.000000
vt 0.959685 0.219241 0.000000
vt 0.219799 0.960501 0.000000
vt 0.140731 0.881579 0.000000
vt 0.101197 0.842119 0.000000
vt 0.841083 0.100859 0.000000
vt 0.880617 0.140320 0.000000
vt 0.022203 0.842191 0.000000
vt 0.061663 0.802658 0.000000
vt 0.061736 0.881652 0.000000
vt 0.801549 0.061398 0.000000
vt 0.841010 0.021864 0.000000
vt 0.880544 0.061325 0.000000
# 14 texture coords

o weapon_Lumber
g weapon_Lumber
usemtl wire_225088199
s 2
f 1/1/1 2/2/2 3/3/3 4/4/4 
s 4
f 5/5/5 6/6/6 7/7/7 8/8/8 
s 8
f 1/9/1 4/10/4 6/6/6 5/11/5 
s 16
f 4/10/4 3/12/3 7/7/7 6/6/6 
s 32
f 3/12/3 2/13/2 8/14/8 7/7/7 
s 64
f 2/2/2 1/1/1 5/5/5 8/8/8 
# 6 polygons

